<?xml version="1.0" encoding="utf-8"?>
<?xml-stylesheet type="text/xsl" href="rss1.xsl"?>
<rss version="2.0" xmlns:atom="http://www.w3.org/2005/Atom" xmlns:content="http://purl.org/rss/1.0/modules/content/" xmlns:dc="http://purl.org/dc/elements/1.1/" xmlns:media="http://search.yahoo.com/mrss/">
<channel>
 <title>Getty</title>
 <link>http://www.gettyimg.com/</link>
 <atom:link href="http://www.gettyimg.com/" rel="self" type="application/rss+xml" />

 
                <item>
                <title><![CDATA[【Apple Music】WEB-RiP - Nicole Cherry - Soy Como Soy (feat. Joey Montana) (1080p)]]></title>
                <link><![CDATA[https://sharemania.us/threads/nicole-cherry-soy-como-soy-feat-joey-montana-1080p.228513/]]></link>
                <description><![CDATA[<article>
<blockquote class="messageText SelectQuoteContainer ugc baseHtml">
<img src="https://i.imgur.com/8dhNK36.jpg" class="bbCodeImage LbImage" alt="[​IMG]" data-url="https://i.imgur.com/8dhNK36.jpg" style=""><br>
<br>
<div class="bbCodeBlock bbCodeCode">
<div class="type">Code:</div>
<pre>General
Complete name                  : C:\Users\asus\Desktop\Nicole Cherry - Soy Como Soy (feat. Joey Montana).mp4
Format                         : MPEG-4
Format profile                 : Base Media
Codec ID                       : isom (isom/iso2/avc1/mp41)
File size                      : 155 MiB
Duration                       : 3 min 15 s
Overall bit rate               : 6 654 kb/s
Frame rate                     : 25.000 FPS
Movie name                     : Soy Como Soy (feat. Joey Montana)
Performer                      : Nicole Cherry
Genre                          : Pop
ContentType                    : Music Video
Recorded date                  : 2017-05-09 07:00:00 UTC
Writing application            : Lavf57.29.101
Copyright                      : ℗ 2017 MediaPro Music / La Clique Music

Video
ID                             : 1
Format                         : AVC
Format/Info                    : Advanced Video Codec
Format profile                 : High@L4
Format settings                : CABAC / 5 Ref Frames
Format settings, CABAC         : Yes
Format settings, Reference fra : 5 frames
Codec ID                       : avc1
Codec ID/Info                  : Advanced Video Coding
Duration                       : 3 min 15 s
Bit rate                       : 6 405 kb/s
Width                          : 1 920 pixels
Height                         : 816 pixels
Display aspect ratio           : 2.35:1
Frame rate mode                : Constant
Frame rate                     : 25.000 FPS
Color space                    : YUV
Chroma subsampling             : 4:2:0
Bit depth                      : 8 bits
Scan type                      : Progressive
Bits/(Pixel*Frame)             : 0.164
Stream size                    : 149 MiB (96%)
Color range                    : Limited
Color primaries                : BT.709
Transfer characteristics       : BT.709
Matrix coefficients            : BT.709
Codec configuration box        : avcC

Audio
ID                             : 2
Format                         : AAC LC
Format/Info                    : Advanced Audio Codec Low Complexity
Codec ID                       : mp4a-40-2
Duration                       : 3 min 15 s
Bit rate mode                  : Constant
Bit rate                       : 244 kb/s
Channel(s)                     : 2 channels
Channel layout                 : L R
Sampling rate                  : 48.0 kHz
Frame rate                     : 46.875 FPS (1024 SPF)
Compression mode               : Lossy
Stream size                    : 5.67 MiB (4%)
Default                        : Yes
Alternate group                : 1

</pre>
</div>
<div class="bbCodeBlock bbCodeVfcHH HiddenContent">
<div class="attribution type">Hidden Content:</div>
<blockquote>You must either reply or click 'Like' to see the hidden information contained here.</blockquote>
</div>
<div class="messageTextEndMarker">&nbsp;</div>
</blockquote>
</article>]]></description>
                <author><![CDATA[vitalya3]]></author>
                </item>

                
                <item>
                <title><![CDATA[【Requests】[REQ VID] - Erin &amp; Aaron]]></title>
                <link><![CDATA[https://sharemania.us/threads/erin-aaron.228515/]]></link>
                <description><![CDATA[<article>
<blockquote class="messageText SelectQuoteContainer ugc baseHtml">
Hello there. Can anyone upload this show? It seems that it is available on Nickelodeon's website and it also was available on Youtube TV, but these services are not accessible in my country.<br>
Here is a link to Youtube TV: <a href="https://tv.youtube.com/browse/erin---aaron-UCuukX9z0suUJUI6ucL8gY_g" target="_blank" class="externalLink" rel="nofollow">https://tv.youtube.com/browse/erin---aaron-UCuukX9z0suUJUI6ucL8gY_g</a><br>
Thanks in advance.
<div class="messageTextEndMarker">&nbsp;</div>
</blockquote>
</article>]]></description>
                <author><![CDATA[forapps1910]]></author>
                </item>

                
                <item>
                <title><![CDATA[【UPSCALED】Queen - Scandal (Remastered) [4K AI Upscale | HEVC 10-bit | PCM 24-bit 48 kHz | DTS 24/96 5.1]]]></title>
                <link><![CDATA[https://sharemania.us/threads/queen-scandal-remastered-4k-ai-upscale-hevc-10-bit-pcm-24-bit-48-khz-dts-24-96-5-1.228517/]]></link>
                <description><![CDATA[<article>
<blockquote class="messageText SelectQuoteContainer ugc baseHtml">
<b><img src="https://images2.imgbox.com/19/c3/6KJiEmGl_o.jpg" class="bbCodeImage LbImage" alt="[​IMG]" data-url="https://images2.imgbox.com/19/c3/6KJiEmGl_o.jpg" style=""> <br>
<br>
Genre: <span style="color: #0059b3">Rock</span> <br>
Style: <span style="color: #0059b3">Pop Rock</span> <br>
Year: <span style="color: #0059b3">1989</span> <br>
Video Source: <span style="color: #0059b3">YouTube, 1080p remaster</span><br>
Audio Source: <span style="color: #0059b3">Qobuz &amp; DVD</span></b><br>
<br>
"<b>Scandal</b>" is a song by the British rock band Queen. It was released as the fourth single from their 1989 album <i>The Miracle</i> and peaked at #25 in the UK. The single was released in the United States but failed to chart.<br>
<br>
"Scandal", written by Brian May, but credited to Queen, is about the unwanted attention May and lead singer Freddie Mercury received from the press in the late 1980s, involving May's divorce from his first wife, Chrissie Mullen, and his relationship with actress Anita Dobson and growing media speculation about Mercury's health. Mercury was diagnosed with AIDS in April 1987; he did not reveal his condition until the day before his death in November 1991. However, changes in his appearance, particularly his weight loss and rather gaunt look, helped fuel speculation that he was seriously ill.<br>
<br>
The video for the song featured the band performing on a stage designed to look like a newspaper - it was filmed at Pinewood Studios on 27 September 1989. The music video has been remastered in HD from the original 1-inch videotape masters by Oli Maingay at Vanderquest. Video Restoration by Silver Salt. The remaster was released on YouTube in November, 2022.<br>
<br>
<b>Release Info</b><br>
The video track is upscaled to from 1080p to 4K with Topaz Video AI and encoded to HEVC 10-bit.<br>
The first PCM track is the 2011 remaster from Qobuz (Hi-Res 24-bit 48 kHz), synced with Adobe Audition.<br>
The second PCM track + the DTS track are ripped from the Greatest Video Hits 2 DVD, synced by muxing.<br>
The timed lyrics are synced and edited. Enable the subtitles to see the lyrics.<br>
<br>
<div class="ToggleTriggerAnchor bbCodeSpoilerContainer">
<button type="button" class="button bbCodeSpoilerButton ToggleTrigger Tooltip JsOnly" data-target="> .SpoilerTarget"><span>Spoiler: <span class="SpoilerTitle">Media Info</span></span></button>
<div class="SpoilerTarget bbCodeSpoilerText">
<div class="bbCodeBlock bbCodeCode">
<div class="type">Code:</div>
<pre>General
Unique ID                      : 256571289342414225601823481966185603598 (0xC105D53907B24CDECC1CAD916BD2E20E)
Complete name                  : Queen - Scandal (Remastered).mkv
Format                         : Matroska
Format version                 : Version 4 / Version 2
File size                      : 470 MiB
Duration                       : 4 min 41 s
Overall bit rate               : 14.0 Mb/s
Frame rate                     : 25.000 FPS
Encoded date                   : 2023-09-14 23:10:38 UTC
Writing application            : mkvmerge v76.0 ('Celebration') 64-bit
Writing library                : libebml v1.4.4 + libmatroska v1.7.1

Video
ID                             : 1
Format                         : HEVC
Format/Info                    : High Efficiency Video Coding
Format profile                 : Main 10@L5@Main
Codec ID                       : V_MPEGH/ISO/HEVC
Duration                       : 4 min 41 s
Bit rate                       : 8 711 kb/s
Width                          : 2 760 pixels
Height                         : 2 160 pixels
Display aspect ratio           : 1.278
Frame rate mode                : Constant
Frame rate                     : 25.000 FPS
Color space                    : YUV
Chroma subsampling             : 4:2:0
Bit depth                      : 10 bits
Bits/(Pixel*Frame)             : 0.058
Stream size                    : 292 MiB (62%)
Writing library                : x265 3.5+1-f0c1022b6:[Windows][GCC 10.2.0][64 bit] 10bit
Encoding settings              : cpuid=1111039 / frame-threads=6 / numa-pools=32 / wpp / no-pmode / no-pme / no-psnr / no-ssim / log-level=2 / input-csp=1 / input-res=2760x2160 / interlace=0 / total-frames=0 / level-idc=0 / high-tier=1 / uhd-bd=0 / ref=4 / no-allow-non-conformance / no-repeat-headers / annexb / no-aud / no-eob / no-eos / no-hrd / info / hash=0 / no-temporal-layers / open-gop / min-keyint=25 / keyint=250 / gop-lookahead=0 / bframes=4 / b-adapt=2 / b-pyramid / bframe-bias=0 / rc-lookahead=25 / lookahead-slices=4 / scenecut=40 / no-hist-scenecut / radl=0 / no-splice / no-intra-refresh / ctu=64 / min-cu-size=8 / rect / no-amp / max-tu-size=32 / tu-inter-depth=1 / tu-intra-depth=1 / limit-tu=0 / rdoq-level=2 / dynamic-rd=0.00 / no-ssim-rd / signhide / no-tskip / nr-intra=0 / nr-inter=0 / no-constrained-intra / strong-intra-smoothing / max-merge=3 / limit-refs=3 / limit-modes / me=3 / subme=3 / merange=57 / temporal-mvp / no-frame-dup / no-hme / weightp / no-weightb / no-analyze-src-pics / deblock=0:0 / sao / no-sao-non-deblock / rd=4 / selective-sao=4 / no-early-skip / rskip / no-fast-intra / no-tskip-fast / no-cu-lossless / no-b-intra / no-splitrd-skip / rdpenalty=0 / psy-rd=2.00 / psy-rdoq=1.00 / no-rd-refine / no-lossless / cbqpoffs=0 / crqpoffs=0 / rc=crf / crf=20.0 / qcomp=0.60 / qpstep=4 / stats-write=0 / stats-read=0 / ipratio=1.40 / pbratio=1.30 / aq-mode=2 / aq-strength=1.00 / cutree / zone-count=0 / no-strict-cbr / qg-size=32 / no-rc-grain / qpmax=69 / qpmin=0 / no-const-vbv / sar=1 / overscan=0 / videoformat=5 / range=0 / colorprim=1 / transfer=1 / colormatrix=1 / chromaloc=0 / display-window=0 / cll=0,0 / min-luma=0 / max-luma=1023 / log2-max-poc-lsb=8 / vui-timing-info / vui-hrd-info / slices=1 / no-opt-qp-pps / no-opt-ref-list-length-pps / no-multi-pass-opt-rps / scenecut-bias=0.05 / no-opt-cu-delta-qp / no-aq-motion / no-sbrc / no-hdr10 / no-hdr10-opt / no-dhdr10-opt / no-idr-recovery-sei / analysis-reuse-level=0 / analysis-save-reuse-level=0 / analysis-load-reuse-level=0 / scale-factor=0 / refine-intra=0 / refine-inter=0 / refine-mv=1 / refine-ctu-distortion=0 / no-limit-sao / ctu-info=0 / no-lowpass-dct / refine-analysis-type=0 / copy-pic=1 / max-ausize-factor=1.0 / no-dynamic-refine / no-single-sei / no-hevc-aq / no-svt / no-field / qp-adaptation-range=1.00 / scenecut-aware-qp=0conformance-window-offsets / right=0 / bottom=0 / decoder-max-rate=0 / no-vbv-live-multi-pass / no-mcstf
Default                        : Yes
Forced                         : No
Color range                    : Limited
Color primaries                : BT.709
Transfer characteristics       : BT.709
Matrix coefficients            : BT.709

Audio #1
ID                             : 2
Format                         : PCM
Format settings                : Little / Signed
Codec ID                       : A_PCM/INT/LIT
Duration                       : 4 min 41 s
Bit rate mode                  : Constant
Bit rate                       : 2 304 kb/s
Channel(s)                     : 2 channels
Sampling rate                  : 48.0 kHz
Frame rate                     : 25.002 FPS (1920 SPF)
Bit depth                      : 24 bits
Stream size                    : 77.3 MiB (16%)
Title                          : Lossless 24-bit 48 kHz
Language                       : English
Default                        : Yes
Forced                         : No

Audio #2
ID                             : 3
ID in the original source medi : 189 (0xBD)160 (0xA0)
Format                         : PCM
Format settings                : Little / Signed
Codec ID                       : A_PCM/INT/LIT
Duration                       : 4 min 37 s
Bit rate mode                  : Constant
Bit rate                       : 1 536 kb/s
Channel(s)                     : 2 channels
Sampling rate                  : 48.0 kHz
Frame rate                     : 30.000 FPS (1600 SPF)
Bit depth                      : 16 bits
Delay relative to video        : 18 ms
Stream size                    : 50.8 MiB (11%)
Title                          : Lossless 16-bit 48 kHz
Language                       : English
Default                        : Yes
Forced                         : No
Original source medium         : DVD-Video

Audio #3
ID                             : 4
ID in the original source medi : 189 (0xBD)137 (0x89)
Format                         : DTS x96
Format/Info                    : Digital Theater Systems
Commercial name                : DTS 96/24
Codec ID                       : A_DTS
Duration                       : 4 min 37 s
Bit rate mode                  : Constant
Bit rate                       : 1 510 kb/s
Channel(s)                     : 6 channels
Channel layout                 : C L R Ls Rs LFE
Sampling rate                  : 96.0 kHz / 48.0 kHz
Frame rate                     : 93.750 FPS (1024 SPF) / 93.750 FPS (512 SPF)
Bit depth                      : 24 bits
Compression mode               : Lossy
Delay relative to video        : 8 ms
Stream size                    : 50.0 MiB (11%)
Title                          : DTS 24/96 5.1
Language                       : English
Default                        : No
Forced                         : No
Original source medium         : DVD-Video

Text
ID                             : 5
Format                         : UTF-8
Codec ID                       : S_TEXT/UTF8
Codec ID/Info                  : UTF-8 Plain Text
Duration                       : 3 min 42 s
Bit rate                       : 39 b/s
Frame rate                     : 0.198 FPS
Count of elements              : 44
Stream size                    : 1.08 KiB (0%)
Title                          : Lyrics
Language                       : English
Default                        : No
Forced                         : No
</pre>
</div></div>
</div><br>
<div class="bbCodeBlock bbCodeVfcHH HiddenContent">
<div class="attribution type">Hidden Content:</div>
<blockquote>You must reply before you can see the hidden data contained here.</blockquote>
</div>
<div class="messageTextEndMarker">&nbsp;</div>
</blockquote>
</article>]]></description>
                <author><![CDATA[ADHDerby]]></author>
                </item>

                
                <item>
                <title><![CDATA[【Actresses】Kate Beckinsale : Hot Wallpapers x 15]]></title>
                <link><![CDATA[https://sharemania.us/threads/kate-beckinsale-hot-wallpapers-x-15.228516/]]></link>
                <description><![CDATA[<article>
<blockquote class="messageText SelectQuoteContainer ugc baseHtml">
<a href="https://www.imagebam.com/view/MEOY9GM" target="_blank" class="externalLink" rel="nofollow"><img src="https://thumbs4.imagebam.com/a5/b3/c4/MEOY9GM_t.jpg" class="bbCodeImage LbImage" alt="[​IMG]" data-url="https://thumbs4.imagebam.com/a5/b3/c4/MEOY9GM_t.jpg"></a> <a href="https://www.imagebam.com/view/MEOY9GN" target="_blank" class="externalLink" rel="nofollow"><img src="https://thumbs4.imagebam.com/a0/1c/79/MEOY9GN_t.jpg" class="bbCodeImage LbImage" alt="[​IMG]" data-url="https://thumbs4.imagebam.com/a0/1c/79/MEOY9GN_t.jpg"></a> <a href="https://www.imagebam.com/view/MEOY9GO" target="_blank" class="externalLink" rel="nofollow"><img src="https://thumbs4.imagebam.com/97/9e/55/MEOY9GO_t.jpg" class="bbCodeImage LbImage" alt="[​IMG]" data-url="https://thumbs4.imagebam.com/97/9e/55/MEOY9GO_t.jpg"></a> <a href="https://www.imagebam.com/view/MEOY9GP" target="_blank" class="externalLink" rel="nofollow"><img src="https://thumbs4.imagebam.com/07/79/57/MEOY9GP_t.jpg" class="bbCodeImage LbImage" alt="[​IMG]" data-url="https://thumbs4.imagebam.com/07/79/57/MEOY9GP_t.jpg"></a> <a href="https://www.imagebam.com/view/MEOY9GQ" target="_blank" class="externalLink" rel="nofollow"><img src="https://thumbs4.imagebam.com/a1/e4/30/MEOY9GQ_t.jpg" class="bbCodeImage LbImage" alt="[​IMG]" data-url="https://thumbs4.imagebam.com/a1/e4/30/MEOY9GQ_t.jpg"></a> <a href="https://www.imagebam.com/view/MEOY9GR" target="_blank" class="externalLink" rel="nofollow"><img src="https://thumbs4.imagebam.com/95/5c/39/MEOY9GR_t.jpg" class="bbCodeImage LbImage" alt="[​IMG]" data-url="https://thumbs4.imagebam.com/95/5c/39/MEOY9GR_t.jpg"></a> <a href="https://www.imagebam.com/view/MEOY9GS" target="_blank" class="externalLink" rel="nofollow"><img src="https://thumbs4.imagebam.com/ae/d5/da/MEOY9GS_t.jpg" class="bbCodeImage LbImage" alt="[​IMG]" data-url="https://thumbs4.imagebam.com/ae/d5/da/MEOY9GS_t.jpg"></a> <a href="https://www.imagebam.com/view/MEOY9GT" target="_blank" class="externalLink" rel="nofollow"><img src="https://thumbs4.imagebam.com/88/73/7d/MEOY9GT_t.jpg" class="bbCodeImage LbImage" alt="[​IMG]" data-url="https://thumbs4.imagebam.com/88/73/7d/MEOY9GT_t.jpg"></a> <a href="https://www.imagebam.com/view/MEOY9GU" target="_blank" class="externalLink" rel="nofollow"><img src="https://thumbs4.imagebam.com/54/91/97/MEOY9GU_t.jpg" class="bbCodeImage LbImage" alt="[​IMG]" data-url="https://thumbs4.imagebam.com/54/91/97/MEOY9GU_t.jpg"></a> <a href="https://www.imagebam.com/view/MEOY9GV" target="_blank" class="externalLink" rel="nofollow"><img src="https://thumbs4.imagebam.com/10/e6/2f/MEOY9GV_t.jpg" class="bbCodeImage LbImage" alt="[​IMG]" data-url="https://thumbs4.imagebam.com/10/e6/2f/MEOY9GV_t.jpg"></a> <a href="https://www.imagebam.com/view/MEOY9GW" target="_blank" class="externalLink" rel="nofollow"><img src="https://thumbs4.imagebam.com/f7/d3/59/MEOY9GW_t.jpg" class="bbCodeImage LbImage" alt="[​IMG]" data-url="https://thumbs4.imagebam.com/f7/d3/59/MEOY9GW_t.jpg"></a> <a href="https://www.imagebam.com/view/MEOY9GX" target="_blank" class="externalLink" rel="nofollow"><img src="https://thumbs4.imagebam.com/83/63/0c/MEOY9GX_t.jpg" class="bbCodeImage LbImage" alt="[​IMG]" data-url="https://thumbs4.imagebam.com/83/63/0c/MEOY9GX_t.jpg"></a> <a href="https://www.imagebam.com/view/MEOY9GY" target="_blank" class="externalLink" rel="nofollow"><img src="https://thumbs4.imagebam.com/12/5a/5b/MEOY9GY_t.jpg" class="bbCodeImage LbImage" alt="[​IMG]" data-url="https://thumbs4.imagebam.com/12/5a/5b/MEOY9GY_t.jpg"></a> <a href="https://www.imagebam.com/view/MEOY9H0" target="_blank" class="externalLink" rel="nofollow"><img src="https://thumbs4.imagebam.com/f5/d5/e6/MEOY9H0_t.jpg" class="bbCodeImage LbImage" alt="[​IMG]" data-url="https://thumbs4.imagebam.com/f5/d5/e6/MEOY9H0_t.jpg"></a> <a href="https://www.imagebam.com/view/MEOY9H1" target="_blank" class="externalLink" rel="nofollow"><img src="https://thumbs4.imagebam.com/d0/e4/db/MEOY9H1_t.jpg" class="bbCodeImage LbImage" alt="[​IMG]" data-url="https://thumbs4.imagebam.com/d0/e4/db/MEOY9H1_t.jpg"></a><br>
<br>
<a href="https://www.imagebam.com/view/GA91YG" target="_blank" class="externalLink" rel="nofollow">https://www.imagebam.com/view/GA91YG</a>
<div class="messageTextEndMarker">&nbsp;</div>
</blockquote>
</article>]]></description>
                <author><![CDATA[Alpha]]></author>
                </item>

                
                <item>
                <title><![CDATA[【Apple Music】WEB-RiP - Nicole Scherzinger - Right There ft. 50 Cent (1080p)]]></title>
                <link><![CDATA[https://sharemania.us/threads/nicole-scherzinger-right-there-ft-50-cent-1080p.228514/]]></link>
                <description><![CDATA[<article>
<blockquote class="messageText SelectQuoteContainer ugc baseHtml">
<img src="https://i.imgur.com/VHPdl5u.jpg" class="bbCodeImage LbImage" alt="[​IMG]" data-url="https://i.imgur.com/VHPdl5u.jpg" style=""><br>
<br>
<div class="bbCodeBlock bbCodeCode">
<div class="type">Code:</div>
<pre>General
Complete name                  : C:\Users\asus\Desktop\Nicole Scherzinger - Right There ft. 50 Cent.mp4
Format                         : MPEG-4
Format profile                 : Base Media
Codec ID                       : isom (isom/iso2/avc1/mp41)
File size                      : 322 MiB
Duration                       : 4 min 20 s
Overall bit rate               : 10.4 Mb/s
Frame rate                     : 23.976 FPS
Movie name                     : Right There (feat. 50 Cent)
Performer                      : Nicole Scherzinger, Paul Hunter, Gaetano Crupi &amp; Kathy Angstadt
Genre                          : Pop
ContentType                    : Music Video
Recorded date                  : 2011-01-01 08:00:00 UTC
Writing application            : Lavf57.29.101
Copyright                      : ℗ 2011 Interscope Records

Video
ID                             : 1
Format                         : AVC
Format/Info                    : Advanced Video Codec
Format profile                 : High@L4
Format settings                : CABAC / 4 Ref Frames
Format settings, CABAC         : Yes
Format settings, Reference fra : 4 frames
Codec ID                       : avc1
Codec ID/Info                  : Advanced Video Coding
Duration                       : 4 min 20 s
Bit rate                       : 10.1 Mb/s
Width                          : 1 920 pixels
Height                         : 1 080 pixels
Display aspect ratio           : 16:9
Frame rate mode                : Constant
Frame rate                     : 23.976 (23976/1000) FPS
Color space                    : YUV
Chroma subsampling             : 4:2:0
Bit depth                      : 8 bits
Scan type                      : Progressive
Bits/(Pixel*Frame)             : 0.204
Stream size                    : 314 MiB (98%)
Color range                    : Limited
Color primaries                : BT.709
Transfer characteristics       : BT.709
Matrix coefficients            : BT.709
Codec configuration box        : avcC

Audio
ID                             : 2
Format                         : AAC LC
Format/Info                    : Advanced Audio Codec Low Complexity
Codec ID                       : mp4a-40-2
Duration                       : 4 min 20 s
Bit rate mode                  : Constant
Bit rate                       : 247 kb/s
Channel(s)                     : 2 channels
Channel layout                 : L R
Sampling rate                  : 48.0 kHz
Frame rate                     : 46.875 FPS (1024 SPF)
Compression mode               : Lossy
Stream size                    : 7.66 MiB (2%)
Default                        : Yes
Alternate group                : 1

</pre>
</div>
<div class="bbCodeBlock bbCodeVfcHH HiddenContent">
<div class="attribution type">Hidden Content:</div>
<blockquote>You must either reply or click 'Like' to see the hidden information contained here.</blockquote>
</div>
<div class="messageTextEndMarker">&nbsp;</div>
</blockquote>
</article>]]></description>
                <author><![CDATA[vitalya3]]></author>
                </item>

                </channel></rss>